<svg xmlns="http://www.w3.org/2000/svg" width="110" height="40" fill="none"><path fill="#FF5038" d="M19.125 39h4.739v-5.761H25.5L28.568 39h5.148l-3.546-6.511c1.858-.895 2.966-2.591 2.966-5.012 0-3.716-2.6-5.931-6.477-5.931h-7.534V39Zm4.739-9.443V25.33h1.67c1.662 0 2.66.647 2.66 2.147 0 1.492-.998 2.08-2.66 2.08h-1.67ZM36.156 39h12.546v-3.818h-7.807v-3h7.193v-3.818h-7.193v-3h7.84v-3.819H36.157V39Zm15.93 0h4.739v-5.182h2.625c3.98 0 6.647-2.344 6.647-6.102 0-3.716-2.6-6.17-6.477-6.17h-7.534V39Zm4.739-8.864V25.33h1.67c1.662 0 2.66.886 2.66 2.386 0 1.491-.998 2.42-2.66 2.42h-1.67ZM71.19 39l1.006-3.34h5.761L78.963 39h5.114l-5.762-17.454h-6.477L66.077 39h5.113Zm2.08-6.886 1.739-5.762h.136l1.739 5.762H73.27Zm18.226-10.568h-4.738V39h4.738V21.546ZM94.742 39h4.739v-5.761h1.636L104.185 39h5.148l-3.545-6.511c1.858-.895 2.966-2.591 2.966-5.012 0-3.716-2.6-5.931-6.478-5.931h-7.534V39Zm4.739-9.443V25.33h1.67c1.662 0 2.659.647 2.659 2.147 0 1.492-.997 2.08-2.659 2.08h-1.67Z"/><path fill="#2D2977" d="M.648 4.364V.545h15.17v3.819h-5.25V18h-4.67V4.364H.648ZM18.602 18V.545h7.534c1.295 0 2.429.236 3.4.708.972.471 1.727 1.15 2.267 2.037.54.886.81 1.949.81 3.187 0 1.25-.279 2.304-.835 3.162-.551.858-1.327 1.506-2.327 1.943-.994.438-2.156.657-3.486.657h-4.5V8.557h3.546c.556 0 1.03-.068 1.423-.205.398-.142.702-.366.912-.673.216-.307.324-.707.324-1.202 0-.5-.108-.906-.324-1.218a1.81 1.81 0 0 0-.912-.7c-.392-.153-.867-.23-1.423-.23h-1.67V18H18.6Zm10.227-8.011L33.193 18h-5.148l-4.262-8.011h5.046ZM45.962.545h4.739v11.182c0 1.33-.318 2.48-.955 3.452-.63.966-1.51 1.713-2.642 2.242-1.13.522-2.443.784-3.937.784-1.506 0-2.824-.262-3.955-.784-1.13-.529-2.011-1.276-2.642-2.242-.625-.972-.937-2.122-.937-3.452V.545h4.738v10.773c0 .54.12 1.023.358 1.449.239.42.569.75.989.989.426.238.91.358 1.449.358.545 0 1.028-.12 1.449-.358.42-.239.75-.569.988-.989.239-.426.358-.909.358-1.449V.545ZM70.25 7.091h-4.807a3.258 3.258 0 0 0-.273-1.082 2.443 2.443 0 0 0-.597-.836 2.488 2.488 0 0 0-.912-.545 3.538 3.538 0 0 0-1.218-.196c-.796 0-1.469.193-2.02.58-.546.386-.96.94-1.244 1.661-.279.722-.418 1.588-.418 2.6 0 1.068.142 1.963.426 2.684.29.716.708 1.256 1.253 1.62.545.358 1.202.537 1.969.537.437 0 .83-.054 1.176-.162a2.76 2.76 0 0 0 .903-.486c.256-.21.463-.463.622-.759.165-.3.276-.639.333-1.014l4.807.034c-.057.739-.265 1.492-.623 2.259a7.344 7.344 0 0 1-1.525 2.113c-.654.642-1.463 1.16-2.43 1.552-.965.392-2.087.588-3.366.588-1.602 0-3.04-.344-4.312-1.032-1.267-.687-2.27-1.699-3.009-3.034-.733-1.335-1.1-2.969-1.1-4.9 0-1.943.376-3.58 1.126-4.91.75-1.335 1.761-2.343 3.034-3.025C59.317.651 60.737.307 62.305.307c1.103 0 2.117.15 3.043.452a7.322 7.322 0 0 1 2.438 1.32 6.524 6.524 0 0 1 1.687 2.123c.426.84.685 1.804.776 2.889ZM73.399 18V.545h4.738v7.057h.239l5.25-7.057h5.522l-5.897 7.773L89.285 18h-5.66l-3.92-6.546-1.568 2.046V18h-4.739Z"/></svg>