<svg xmlns="http://www.w3.org/2000/svg" width="40" height="40" fill="none"><g clip-path="url(#a)"><path fill="#FF5038" d="m30.309 0-9.584.008-9.963 10.026C1.204 19.648.821 20.044.526 20.634c-.728 1.464-.698 3.033.078 4.535.272.536.665.959 4.214 4.519l4.224 4.244V28.97l-2.695-2.69C4.186 24.113 3.66 23.511 3.6 23.39a1.294 1.294 0 0 1 .016-1.12c.155-.3 3.016-3.195 9.38-9.57l9.206-9.212h14.314V16.28l.543.185c.585.188 1.718.738 2.197 1.04l.74.481V0H30.31Z"/><path fill="#FF5038" d="M30.198 11.515c.333.008.661-.08.946-.254.538-.356.768-.794.768-1.463s-.232-1.107-.743-1.446c-.378-.255-1.07-.346-1.541-.203-.43.126-.956.684-1.085 1.152a1.788 1.788 0 0 0 .765 1.986c.27.156.578.236.89.228Z"/><path fill="#2D2977" d="M38.828 20.615c-1.048-1.05-2.54-1.726-4.563-2.068-.643-.107-2.679-.208-3.228-.14-2.81.314-4.471.953-5.736 2.208-.592.593-.926 1.163-1.08 1.848-.057.228-.091 1.014-.091 1.642v.968l-.215-.087c-1.22-.48-2.526-.698-4.235-.698-1.783 0-3.24.25-4.577.79-1.734.707-2.955 1.93-3.265 3.272-.118.496-.118 7.091 0 7.586.31 1.343 1.532 2.566 3.267 3.274.846.314 1.72.543 2.612.685.863.135 3.066.135 3.929 0 1.685-.262 3.502-.945 4.228-1.591l.006.005c.488.44 1.7.995 2.82 1.291 1.143.302 1.958.4 3.367.4 1.782 0 3.24-.25 4.577-.79 1.734-.706 2.955-1.93 3.266-3.272.117-.504.117-12.969 0-13.471-.156-.689-.49-1.26-1.082-1.852Zm-5.386 1.343c.83.105 1.696.358 2.32.678.277.145.526.336.736.566-.1.133-.486.44-.924.642-1.223.575-2.845.807-4.448.652-1.06-.105-1.805-.294-2.569-.65-.438-.202-.824-.509-.924-.641.211-.231.46-.424.738-.57 1.317-.674 3.213-.93 5.07-.677Zm-5.825 12.116c0-.443.006-.75.014-.93.081.029.183.065.297.108 1.348.512 3.48.766 5.185.615 1.182-.102 2.339-.332 3.092-.615.114-.043.216-.078.298-.108.008.184.014.49.014.93v1.115l-.19.197c-.8.8-3.18 1.31-5.2 1.114-1.464-.15-2.795-.597-3.31-1.114l-.2-.2v-1.112Zm5.39-3.693c-2.022.197-4.4-.31-5.193-1.114l-.197-.197v-.999c0-.369.006-.645.013-.817.082.029.184.065.298.108 1.348.512 3.48.766 5.185.616 1.182-.102 2.339-.332 3.092-.615.115-.043.216-.078.299-.109.007.173.013.448.013.817v.999l-.19.196c-.525.517-1.859.967-3.32 1.115Zm-9.022-1.11c-.598.634-2.55 1.17-4.264 1.17-1.337 0-2.803-.31-3.736-.793a2.702 2.702 0 0 1-.733-.563c.21-.228.459-.42.735-.563.578-.297 1.483-.572 2.253-.686.904-.13 2.476-.09 3.3.083 1.197.248 2.29.817 2.523 1.17.006.011.022.034.033.054a1.61 1.61 0 0 1-.111.127Zm-.086 3.978.233-.088v2.028l-.19.197c-.8.8-3.179 1.31-5.2 1.114-1.464-.15-2.795-.597-3.31-1.114l-.199-.198v-2.053c.087.029.222.077.35.134.531.226 1.93.5 3.055.595 1.781.152 3.896-.097 5.262-.615Z"/></g><defs><clipPath id="a"><path fill="#fff" d="M0 0h40v40H0z"/></clipPath></defs></svg>