<svg xmlns="http://www.w3.org/2000/svg" width="41" height="41" fill="none"><g clip-path="url(#a)"><path fill="#FF5038" d="M5.32.93c-.81.164-1.62.617-2.27 1.242a4.75 4.75 0 0 0-1.238 1.916l-.183.507-.024 14.261c-.016 10.183 0 14.41.064 14.77.262 1.477 1.159 2.72 2.462 3.392 1.112.57.825.547 6.484.578l5.102.024.016 1.586.024 1.587 2.303-.961c1.271-.532 2.358-.962 2.421-.962.063 0 1.159.43 2.42.962l2.304.969.024-1.587.016-1.587 2.325-.031c2.556-.04 2.706-.063 3.706-.578a4.738 4.738 0 0 0 2.277-2.65l.223-.626.024-10.573.016-10.567h1.015c1.215 0 1.897-.133 2.674-.516a4.757 4.757 0 0 0 1.475-1.128 4.68 4.68 0 0 0 .922-1.6c.223-.617.223-.64.223-2.656 0-1.922-.008-2.063-.183-2.578a4.492 4.492 0 0 0-1.238-1.957A4.697 4.697 0 0 0 36.386.922C35.579.758 6.113.758 5.32.93Zm25.553 3.024c0 .008-.056.265-.12.563-.102.47-.118 2.493-.118 14.613 0 13.433-.008 14.082-.151 14.378-.183.399-.627.79-1.016.891-.175.047-1.143.086-2.262.086h-1.968v-2.969l.223-.094c1.032-.437 1.682-1.492 1.682-2.735 0-.406.04-.5.35-.953.705-1.018.673-2.118-.096-3.079-.215-.265-.238-.36-.278-1.096-.032-.657-.08-.883-.246-1.226-.334-.665-.96-1.11-1.952-1.391-.374-.11-.469-.18-.659-.477-.715-1.118-1.872-1.524-3.166-1.118l-.619.196-.61-.191c-1.326-.414-2.533.031-3.239 1.203-.127.22-.222.265-.714.375-.905.195-1.556.718-1.937 1.565-.063.126-.127.587-.143 1.018-.04.75-.055.797-.341 1.211-.73 1.047-.73 2.048-.008 3.063.294.422.31.453.341 1.211.024.649.064.844.247 1.21.251.514.687.918 1.222 1.134l.42.188v2.962h-4.737c-3.23 0-4.849-.031-5.063-.086-.421-.117-.953-.64-1.064-1.063-.063-.227-.08-4.227-.071-14.293l.024-13.98.21-.373c.145-.25.368-.448.636-.563l.413-.204H18.47c6.825.001 12.404.009 12.404.024Zm5.222.18c.268.115.49.312.635.563.207.359.215.406.239 1.726.015.75.008 1.517-.024 1.688a1.611 1.611 0 0 1-.865 1.174c-.358.172-.493.196-1.334.196h-.945l.024-2.258.024-2.259.238-.336c.294-.406.817-.695 1.27-.695.258.02.508.087.738.2ZM19.636 22.568c.55.156 1.133.156 1.682 0 .214-.062.413-.117.437-.117.024 0 .159.156.302.351.36.466.86.808 1.43.977l.444.141.048.649c.047.719.135.993.444 1.391.199.258.207.273.08.47-.429.68-.485.836-.516 1.508l-.032.688-.334.086c-.714.188-1.27.579-1.73 1.227-.127.18-.127.18-.508.055-.484-.165-1.302-.173-1.817-.008-.39.125-.397.125-.516-.047a2.889 2.889 0 0 0-1.73-1.227l-.334-.094v-.531c0-.618-.127-1.04-.468-1.524-.215-.305-.23-.352-.12-.446.31-.25.532-.875.572-1.579.024-.5.063-.68.143-.68.222 0 .88-.265 1.198-.477.223-.164.42-.359.587-.578.143-.196.278-.351.302-.351.024 0 .222.054.436.116Zm1.326 10.581c.252.082.509.15.77.204l.333.054v1.32c0 .727-.032 1.321-.064 1.321a7.323 7.323 0 0 1-.794-.313l-.73-.304-.61.258c-.342.141-.699.281-.795.313l-.183.055v-2.65l.334-.054a5.78 5.78 0 0 0 .73-.196c.516-.18.5-.18 1.009-.007v-.001Z"/><path fill="#2D2977" d="M8.018 8.62v1.565H27.46V7.057H8.018v1.562ZM8.018 14.871v1.566h11.507v-3.129H8.018v1.563Z"/></g><defs><clipPath id="a"><path fill="#fff" d="M1.6.8h38.52v40H1.6z"/></clipPath></defs></svg>