<svg xmlns="http://www.w3.org/2000/svg" width="44" height="40" fill="none"><g clip-path="url(#a)"><path fill="#FF5038" d="M21.896 24.211c-.165-.07-.309-.13-.413-.176.062-.07.148-.168.255-.28.995-1.034 1.647-2.377 1.884-3.89.056-.34.07-.385.34-.633.831-.769 2.252-1.608 3.377-2.002 1.356-.475 2.385-.624 3.928-.57 1.99.07 3.442.51 5.175 1.572.592.367.792.463 1.169.49a1.536 1.536 0 0 0 1.516-.93 1.54 1.54 0 0 0-.37-1.765c-.326-.295-1.29-.866-2.148-1.272a43.49 43.49 0 0 1-.602-.284c.062-.07.148-.165.255-.275.908-.955 1.474-2.032 1.79-3.388.202-.839.188-2.365-.029-3.204a7.38 7.38 0 0 0-1.917-3.424A7.433 7.433 0 0 0 32.7 2.214c-.868-.225-2.213-.284-3.056-.129-3.424.645-5.856 3.389-6.05 6.829-.115 1.946.665 4.04 1.989 5.335.092.09.156.156.201.204-.508.189-1.756.853-2.177 1.13-.25.157-.407.254-.5.308a5.41 5.41 0 0 1-.238-.437c-.843-1.645-2.493-3.017-4.3-3.577a7.521 7.521 0 0 0-4.85.156c-1.764.662-3.38 2.243-4.114 4.028a7.23 7.23 0 0 0 .245 6.03c.366.72.613 1.075 1.15 1.645l.248.268-.065.026-.218.08c-.053.011-.195.073-.864.406-3.225 1.608-5.704 4.398-6.803 7.655-.421 1.248-.351 2.392.2 3.498.35.695 1.166 1.533 1.815 1.871l.116.06c.722.383.755.4 6.187.4h8.463l.314-.176a1.84 1.84 0 0 0 .52-.477c.2-.28.228-.435.228-.855 0-.447-.037-.577-.242-.867a1.996 1.996 0 0 0-.582-.516l-.346-.184h-6.435c-5.937 0-6.369-.008-6.603-.117a1.194 1.194 0 0 1-.654-.652c-.141-.3-.146-.544-.014-.931.843-2.517 2.755-4.664 5.237-5.888 1.404-.69 2.626-1.026 4.074-1.119 2.322-.165 4.31.339 6.45 1.63.682.41.994.499 1.447.413a1.573 1.573 0 0 0 1.195-1.067 1.557 1.557 0 0 0-.373-1.554c-.366-.362-1.66-1.108-2.4-1.429ZM31.75 5.22a4.313 4.313 0 0 1 2.73 1.953 3.956 3.956 0 0 1 .453 3.066c-.416 1.63-1.69 2.823-3.327 3.117-1.756.322-3.612-.607-4.407-2.21-.572-1.152-.623-2.236-.162-3.41.626-1.577 2.218-2.61 3.854-2.61.29-.002.578.03.86.094ZM17.477 22.83c-.538.163-1.675.163-2.214 0-1.889-.559-3.166-2.346-3.04-4.247a4.126 4.126 0 0 1 4.113-3.892c.317.004.634.035.946.093 1.508.314 2.837 1.64 3.16 3.153.462 2.148-.814 4.251-2.965 4.893Z"/><path fill="#2D2977" d="M39.152 25.138a1.794 1.794 0 0 0-1.347-.048c-.268.089-.913.705-4.584 4.35l-4.284 4.247-1.625-1.616c-1.753-1.737-1.972-1.894-2.59-1.901-.489 0-.832.123-1.19.438-.405.35-.57.71-.57 1.238 0 .745.082.848 2.653 3.4 1.717 1.702 2.413 2.335 2.638 2.44a1.773 1.773 0 0 0 1.375 0c.46-.205 10.114-9.8 10.349-10.286a1.682 1.682 0 0 0-.284-1.87 1.7 1.7 0 0 0-.54-.392Z"/></g><defs><clipPath id="a"><path fill="#fff" d="M3.022 2h40v36h-40z"/></clipPath></defs></svg>