<svg xmlns="http://www.w3.org/2000/svg" width="40" height="40" fill="none"><g clip-path="url(#a)"><path fill="#FF5038" d="M37.4 15.536c0-7.915-.027-10.388-.11-10.661-.155-.487-.747-1.015-1.258-1.143-.228-.049-1.049-.111-1.83-.135-4.787-.153-9.246-1.228-12.846-3.083-.897-.467-1.39-.586-1.882-.475-.155.034-.656.264-1.103.502-2.188 1.172-5.38 2.176-8.461 2.653a37.59 37.59 0 0 1-4.613.428c-1.44.052-1.632.086-1.942.257a1.93 1.93 0 0 0-.875 1.073c-.074.247-.092 3.104-.074 10.706.028 10.226.028 10.364.21 10.662.209.332 15.709 13.083 16.357 13.447.484.273 1.25.315 1.742.086.274-.12 14.743-11.89 15.947-12.964.801-.727.738.297.738-11.353Zm-3.92 9.125-6.738 5.527c-3.711 3.036-6.774 5.526-6.81 5.534-.037.01-3.119-2.483-6.848-5.526l-6.775-5.543V6.973l.71-.06c3.374-.282 6.42-.832 9.089-1.638 1.304-.4 3.172-1.108 3.528-1.347.07-.047.143-.09.218-.128.01 0 .484.204 1.049.46 2.716 1.212 6.783 2.158 10.95 2.57.738.069 1.403.128 1.485.128.119 0 .137.963.137 8.853l.005 8.85Z"/><path fill="#2D2977" d="M27.074 13.215c-.41-.358-1.112-.57-1.577-.486-.711.136-.84.23-4.194 3.36l-3.367 3.148-1.323-1.246c-.73-.685-1.486-1.321-1.687-1.424-.71-.35-1.742-.179-2.297.384-.493.486-.629 1.424-.31 2.013.1.17 1.194 1.262 2.444 2.413 2.16 2.005 2.279 2.107 2.735 2.21.454.107.935.056 1.351-.145.392-.18 8.306-7.582 8.59-8.035.433-.675.268-1.662-.365-2.192Z"/></g><defs><clipPath id="a"><path fill="#fff" d="M2.4 0h35v40h-35z"/></clipPath></defs></svg>