<svg xmlns="http://www.w3.org/2000/svg" width="40" height="40" fill="none"><g clip-path="url(#a)"><path fill="#FF5038" d="M38.978 10.606c-.023-2.682-.024-2.844-.227-3.176a1.828 1.828 0 0 0-.496-.515l-.012-.008c-.372-.223-17.414-5.78-18.078-5.897a2.188 2.188 0 0 0-.833.095c-2.58.82-17.31 5.642-17.576 5.804l-.01.006a1.828 1.828 0 0 0-.496.515c-.203.332-.205.493-.228 3.176L1 13.432l.214.42c.38.73.98.874 1.887.874h.303l.014 11.27c.024 11.744.028 11.805.197 12.101.19.36.5.641.875.795.1.037.17.064 5.025.087 2.779.014 6.503.02 10.485.02 3.982 0 7.706-.007 10.485-.02 4.854-.023 4.926-.05 5.025-.087.376-.154.686-.436.876-.796.169-.297.172-.36.197-12.102l.014-11.27h.302c.907 0 1.506-.143 1.89-.877l.212-.416-.023-2.825Zm-10.531 8.989v16.186H11.553V19.595h16.894Zm3.08-2.343c-.26-.501-.614-.771-1.15-.874h-.01c-.264-.044-6.221-.064-10.368-.064-4.146 0-10.104.02-10.367.064h-.01c-.535.103-.893.372-1.152.88l-.203.406v18.117H6.689V12.783l-.215-.412c-.372-.688-.835-.82-1.808-.863l-.408-.018V9.432l7.776-2.539 2.744-.9 3.816-1.252 1.103-.362.27-.09c.69.223 4.03 1.31 7.964 2.595l7.808 2.546v2.058l-.409.019c-.972.045-1.439.174-1.81.867l-.213.409V35.78h-1.574V17.664l-.206-.412Z"/><path fill="#2D2977" d="M14.341 24.37c.238.063 2.94.095 5.645.095 2.706 0 5.437-.032 5.677-.096a1.651 1.651 0 0 0 1.171-1.89c-.094-.49-.637-1.082-1.12-1.218-.44-.122-10.989-.113-11.458.008-.45.129-.99.726-1.089 1.213a1.657 1.657 0 0 0 1.174 1.888ZM14.003 29.104c.107.056.199.105 2.086.141 1.046.02 2.435.031 3.91.031 1.477 0 2.865-.01 3.911-.03 1.888-.037 1.98-.086 2.082-.14a1.614 1.614 0 0 0 .628-2.252 1.614 1.614 0 0 0-.62-.595l-.402-.215H14.403l-.402.214a1.614 1.614 0 0 0-.621 2.253c.15.25.364.456.621.594h.002ZM26.18 31.197l-.352-.25-5.755-.022c-5.726-.015-5.738-.009-6.068.162l-.009.005a1.719 1.719 0 0 0-.83 1.151c-.142.78.46 1.709 1.198 1.845.15.024 1.694.033 3.365.033.84 0 1.71 0 2.454-.006l5.646-.022.357-.253c.377-.275.684-.867.684-1.32 0-.452-.307-1.046-.69-1.323Z"/></g><defs><clipPath id="a"><path fill="#fff" d="M1 1h38v38H1z"/></clipPath></defs></svg>