<svg xmlns="http://www.w3.org/2000/svg" width="42" height="40" fill="none"><g clip-path="url(#a)"><path fill="#FF5038" d="M41.945 20.24c-.057-.987-.171-1.273-.613-1.532a1.5 1.5 0 0 1-.08-.05l-.386-.259h-8.744V2.243l-.24-.412a1.82 1.82 0 0 0-.63-.625C30.872 1 30.872 1 21 1c-9.851 0-9.871 0-10.247.205a1.822 1.822 0 0 0-.629.622l-.246.416v16.154H1.134l-.382.257-.08.051c-.445.26-.56.546-.617 1.536C-.002 21.23 0 23.127 0 26.916v10.812l.233.413c.162.282.405.51.698.654.251.122.336.16 2.985.185C6.424 39 11.294 39 21 39s14.577 0 17.084-.02c2.65-.02 2.73-.063 2.988-.187.291-.143.532-.37.694-.65l.233-.415V26.916c.001-3.79.001-5.686-.054-6.675ZM28.99 26.254v-4.65h3.051v4.65H28.99Zm-6.345-4.65h3.047l.021 3.122c.026 3.632.026 3.701.278 4.041.139.181.3.343.482.482.344.254.413.254 3.988.254 3.64 0 3.64 0 4.033-.25l.013-.008c.363-.227.59-.413.678-1.097.072-.554.072-1.534.072-3.487v-3.057h3.453v14.11H22.646v-14.11ZM19.434 8.857v-4.57h3.132v4.57h-3.132Zm-6.264-4.57h3.052v3.022c0 1.924 0 2.886.066 3.438.08.665.286.86.616 1.1.343.256.343.256 4.096.256s3.753 0 4.096-.255c.33-.24.538-.437.618-1.102.066-.549.066-1.514.066-3.438V4.287h3.051v14.11h-15.66V4.287ZM6.416 28.144c.087.685.314.871.677 1.097l.01.006c.4.254.4.254 4.035.254 3.657 0 3.657 0 3.996-.254.194-.154.364-.336.505-.54.262-.375.262-.387.262-4.025v-3.079h3.453v14.11H3.293v-14.11h3.051v3.055c0 1.952 0 2.932.072 3.486Zm3.14-1.89v-4.65l1.545.012 1.55.019.02 2.31.017 2.308H9.556Z"/><path fill="#2D2977" d="M24.92 13.667h-2.133l-.381.307-.01.007c-.68.584-.836 1.466-.376 2.144.489.721.89.748 2.944.748 1.736 0 1.958 0 2.357-.227.743-.426 1.02-1.261.675-2.025-.412-.954-.82-.954-3.077-.954ZM12.832 34.077c.321.148.533.187 1.346.187.27 0 .604-.004 1.03-.01 1.783-.025 1.97-.027 2.321-.281.502-.355.717-.763.717-1.363 0-.576-.205-.962-.706-1.331-.331-.253-.531-.256-2.381-.28-1.793-.017-2.035-.012-2.396.179a1.642 1.642 0 0 0-.883 1.507 1.581 1.581 0 0 0 .952 1.392ZM37.295 31.28c-.332-.253-.53-.256-2.382-.28-1.916-.018-2.031-.018-2.441.219a1.634 1.634 0 0 0-.822 1.395 1.57 1.57 0 0 0 .754 1.363c.402.251.557.251 2.467.251 1.887 0 2.088 0 2.426-.257.512-.378.73-.782.73-1.346 0-.564-.221-.966-.732-1.344Z"/></g><defs><clipPath id="a"><path fill="#fff" d="M0 1h42v38H0z"/></clipPath></defs></svg>