<svg xmlns="http://www.w3.org/2000/svg" width="10" height="20" fill="none"><path fill="#FF5038" d="M9.94 1.471C9.799.775 9.37.24 8.83.06c-.253-.08-7.435-.08-7.689 0C.602.239.191.775.048 1.45c-.064.318-.064 16.76 0 17.078.142.696.57 1.232 1.11 1.411.158.06.665.06 3.836.06 3.17 0 3.678 0 3.837-.06.539-.179.967-.715 1.11-1.411.079-.298.079-16.74 0-17.058Zm-6.357.08v-.2h2.838v.22H3.583v-.02Zm-.999 1.014c.048.08.111.179.159.218.095.1.095.1 2.251.1 2.156 0 2.156 0 2.251-.1.048-.04.127-.159.175-.218.063-.12.079-.2.079-.716v-.497l.555.02c.666.02.666.02.808.258l.064.1v16.6l-.064.1a.709.709 0 0 1-.142.178c-.08.08-.206.08-3.71.08s-3.647 0-3.71-.08a.709.709 0 0 1-.143-.179l-.063-.099-.016-8.19c0-4.732 0-8.231.016-8.33a.583.583 0 0 1 .254-.379c.079-.04.364-.04.65-.06h.523v.518c-.016.477-.016.556.063.676Z"/></svg>