<svg xmlns="http://www.w3.org/2000/svg" width="24" height="24" fill="none"><g clip-path="url(#a)"><path fill="#FF5038" d="M11.32.033C9.07.3 7.22 1.42 5.995 3.248 4.965 4.791 4.561 6.802 4.97 8.391c.487 1.912 1.842 4.518 4.125 7.945.895 1.34 2.84 4.05 2.906 4.05.066 0 2.049-2.766 2.934-4.097 2.611-3.919 4.022-6.816 4.238-8.7.084-.717-.08-1.894-.375-2.737a7.243 7.243 0 0 0-6-4.805C12.422.005 11.63-.005 11.32.033Zm1.416 4.894a2.405 2.405 0 0 1 1.57 2.906c-.243.886-1.021 1.575-1.94 1.73-1.392.239-2.757-.915-2.757-2.33a2.39 2.39 0 0 1 3.127-2.306Z"/><path fill="#2D2977" d="M3.867 13.467C2.048 14.348.745 15.53.253 16.734c-.614 1.51-.08 3.155 1.434 4.42 2.063 1.721 5.414 2.724 9.493 2.827 4.846.127 9.384-1.097 11.456-3.098.881-.853 1.284-1.645 1.35-2.672.117-1.842-1.294-3.511-3.966-4.697l-.445-.192-.39.731c-.22.403-.491.89-.609 1.078-.117.188-.206.347-.197.357l.474.187c1.688.656 2.723 1.542 2.728 2.325.005 1.261-2.7 2.738-6.051 3.305-3.825.651-8.12.187-10.913-1.172C3.197 19.439 2.42 18.684 2.42 18c0-.722.862-1.523 2.48-2.302.388-.187.707-.342.712-.346.01-.005-.127-.24-.296-.52-.168-.282-.43-.76-.585-1.065-.155-.3-.291-.548-.315-.548-.018 0-.262.112-.548.248Z"/></g><defs><clipPath id="a"><path fill="#fff" d="M0 0h24v24H0z"/></clipPath></defs></svg>