<svg xmlns="http://www.w3.org/2000/svg" width="26" height="26" fill="none"><path fill="#2D2977" d="M12.655.056c-.239.071-.554.401-.625.665-.117.447.061.924.437 1.158.157.096.3.122.878.157.386.026.904.082 1.153.122a9.156 9.156 0 0 1 6.622 4.84c.63 1.229.92 2.315 1.016 3.834.035.62.056.716.172.893.203.31.457.437.853.437.275 0 .366-.025.539-.137.442-.295.533-.675.426-1.818A11.253 11.253 0 0 0 20.1 2.559C18.76 1.437 16.961.58 15.23.234c-1.05-.209-2.188-.29-2.574-.178Z"/><path fill="#FF5038" d="M4.164 2.011c-.721.152-1.35.594-2.046 1.432a9.13 9.13 0 0 0 .07 11.766c.189.223 1.778 1.838 3.535 3.585 3.666 3.656 3.885 3.844 5.307 4.51a9.17 9.17 0 0 0 2.98.817 7.778 7.778 0 0 0 1.94-.025c2.001-.234 3.88-1.122 5.251-2.488.401-.397.554-.59.7-.89.443-.888.443-1.837.006-2.741-.173-.356-.31-.508-1.96-2.159-1.102-1.112-1.869-1.843-2.037-1.944a3.057 3.057 0 0 0-2.975-.107c-.391.193-.523.3-1.402 1.168-1 .985-1.178 1.112-1.533 1.112-.376-.005-.554-.147-2.159-1.757-1.6-1.61-1.716-1.752-1.716-2.128 0-.345.137-.533 1.082-1.493.995-1.02 1.223-1.335 1.416-1.96.143-.452.148-1.173.02-1.65-.192-.711-.263-.803-2.234-2.778C6.673 2.539 6.556 2.432 6.195 2.26c-.67-.315-1.345-.396-2.031-.249Zm1.183 2.097c.087.056.864.803 1.717 1.666C8.52 7.24 8.623 7.354 8.678 7.587c.051.198.046.31 0 .508-.055.238-.132.33-1.005 1.223-1.016 1.036-1.214 1.295-1.407 1.854-.314.894-.182 1.858.366 2.691.284.427 3.331 3.474 3.738 3.728.157.096.467.243.685.32.549.193 1.336.203 1.884.02.574-.188.92-.447 1.94-1.452.853-.838.965-.93 1.188-.986a.909.909 0 0 1 .508 0c.249.056.33.132 1.823 1.615.863.853 1.61 1.625 1.666 1.717.055.086.111.274.132.411.04.355-.107.655-.498 1.016-2.519 2.335-6.404 2.508-9.136.41-.462-.354-6.8-6.697-7.12-7.129C1.824 11.37 1.59 8.404 2.85 5.997c.462-.878 1.26-1.848 1.625-1.975.238-.081.675-.036.873.086Z"/><path fill="#2D2977" d="M12.655 4.118c-.244.072-.554.407-.625.666-.117.447.061.924.437 1.157.142.087.305.122.736.158.706.056 1.183.162 1.722.386 1.27.518 2.254 1.513 2.782 2.808.204.498.31.99.366 1.68.05.636.152.854.498 1.067.29.183.782.173 1.066-.015.112-.076.26-.223.325-.33.112-.178.122-.244.117-.777-.01-1.275-.432-2.585-1.214-3.758-.345-.523-1.366-1.533-1.904-1.884a6.93 6.93 0 0 0-2.544-1.061c-.59-.122-1.524-.173-1.762-.097Z"/></svg>