<svg width="18" height="18" fill="none" xmlns="http://www.w3.org/2000/svg"><path d="M8.771.04c-.355.166-.464.64-.217.932.135.162.3.222.588.222.67 0 1.613.165 2.35.413 2.543.85 4.482 2.99 5.096 5.616.123.522.176.913.21 1.562.022.477.033.523.127.646a.59.59 0 0 0 1.003-.093c.079-.15.082-.196.06-.707C17.786 3.94 14.046.184 9.397.007 9.002-.008 8.857 0 8.77.041ZM2.53 2.407c-.362.124-.583.297-1.175.898C.674 4 .415 4.391.191 5.045c-.25.74-.255 1.573-.011 2.696.273 1.255 1.07 2.919 2.044 4.26 2.171 2.986 5.308 5.243 8.194 5.897.409.094.517.101 1.236.101.707.004.82-.007 1.104-.082a4.533 4.533 0 0 0 1.15-.519c.288-.187 1.287-1.175 1.475-1.457a1.846 1.846 0 0 0 .03-1.957c-.143-.225-1.839-1.953-2.142-2.182a2.068 2.068 0 0 0-.43-.24c-.274-.106-.753-.14-1.022-.076-.423.101-.584.21-1.183.8l-.566.56-.352-.237a15.94 15.94 0 0 1-4.297-4.312l-.232-.345.557-.571c.588-.601.697-.763.798-1.187.064-.27.03-.752-.075-1.026-.127-.338-.333-.582-1.351-1.589-.989-.976-1.142-1.1-1.547-1.205a2.038 2.038 0 0 0-1.04.033Z" fill="#86BF58"/><path d="M9.183 3.835c-.326.154-.46.578-.27.852.147.218.248.27.63.305.988.094 1.673.387 2.306.988.715.676 1.085 1.476 1.164 2.512.037.459.108.594.374.71.292.132.614.008.76-.293.075-.157.079-.206.056-.57-.16-2.472-2.077-4.4-4.514-4.534-.296-.015-.42-.008-.506.03Z" fill="#86BF58"/></svg>