<svg xmlns="http://www.w3.org/2000/svg" width="24" height="24" fill="none"><g clip-path="url(#a)"><path fill="#FF5038" d="M11.156.028c-.089.01-.365.042-.609.066C9 .263 7.29.844 5.907 1.669a12.147 12.147 0 0 0-4.238 4.237C.849 7.276.305 8.87.085 10.546c-.075.578-.075 2.33 0 2.907.384 2.92 1.668 5.39 3.843 7.411 1.2 1.12 2.696 1.992 4.322 2.527 1.285.426 2.302.58 3.75.58 1.069 0 1.542-.041 2.485-.233 3.23-.661 6.112-2.733 7.846-5.644.82-1.369 1.364-2.963 1.585-4.64.075-.577.075-2.33 0-2.907-.22-1.678-.764-3.272-1.585-4.64a12.146 12.146 0 0 0-4.237-4.238C16.739.858 15.122.305 13.5.094c-.412-.056-2.053-.099-2.344-.066Zm2.25 2.438c1.599.234 3.113.876 4.468 1.903.492.37 1.387 1.265 1.757 1.758 1.341 1.771 1.997 3.707 1.997 5.873 0 1.219-.183 2.255-.576 3.3-.544 1.42-1.21 2.456-2.25 3.502-1.5 1.495-3.314 2.414-5.419 2.742-.698.108-2.067.108-2.766 0a9.782 9.782 0 0 1-4.49-1.913c-.492-.37-1.388-1.265-1.758-1.758a9.783 9.783 0 0 1-1.913-4.49c-.107-.699-.107-2.067 0-2.766.258-1.65.891-3.14 1.913-4.49.37-.493 1.266-1.388 1.758-1.758 2.133-1.613 4.692-2.283 7.28-1.903Z"/><path fill="#2D2977" d="M12.61 4.247c0 .516-.066.708-.3.877-.197.14-.62.145-.812.004-.224-.164-.295-.365-.295-.858v-.44l-.323.033c-.764.075-1.622.342-2.513.782-.81.399-1.392.811-2.058 1.449-1.34 1.294-2.184 2.925-2.437 4.72l-.061.436h.44c.502 0 .69.061.868.272.178.21.206.469.089.731-.145.328-.305.403-.881.403-.263 0-.488.014-.497.033-.014.024.004.225.037.46.375 2.667 2.058 5.006 4.453 6.182.9.446 1.758.718 2.532.802.154.019.318.042.36.052.076.023.085-.024.085-.52 0-.577.037-.709.244-.9.328-.3.881-.188 1.097.229.046.089.065.295.065.67 0 .497.01.544.085.52a3.93 3.93 0 0 1 .38-.051c.463-.052 1.293-.272 1.846-.492a7.94 7.94 0 0 0 2.649-1.711c1.439-1.378 2.278-3.08 2.517-5.1l.028-.267h-.558c-.502 0-.572-.01-.717-.108-.206-.136-.347-.469-.305-.703.038-.211.235-.446.436-.53.094-.042.333-.066.628-.066h.478l-.032-.295c-.146-1.312-.844-2.92-1.763-4.04a8.238 8.238 0 0 0-5.226-2.954c-.258-.037-.483-.07-.502-.07-.024 0-.037.202-.037.45ZM8.142 7.219c.07.028.97.89 1.992 1.912L12 10.992l.97-.97c1.046-1.045 1.191-1.148 1.524-1.092.258.047.53.323.576.576.057.352-.046.493-1.434 1.87-1.101 1.093-1.308 1.276-1.458 1.304-.431.08-.347.15-2.704-2.194C8.236 9.249 7.275 8.255 7.238 8.17a.705.705 0 0 1 .904-.951Z"/></g><defs><clipPath id="a"><path fill="#fff" d="M0 0h24v24H0z"/></clipPath></defs></svg>