<svg xmlns="http://www.w3.org/2000/svg" fill="none" viewBox="0 0 16 16"><path fill="#fff" d="m7.743.01-.425.046a8.688 8.688 0 0 0-3.61 1.282 8.85 8.85 0 0 0-2.34 2.249C.685 4.56.223 5.748.043 6.996c-.059.39-.059 1.61 0 2.001a7.93 7.93 0 0 0 1.35 3.447 8.793 8.793 0 0 0 2.55 2.354c2.466 1.458 5.568 1.599 8.132.373.9-.432 1.467-.826 2.204-1.526.69-.663 1.12-1.214 1.542-1.99.25-.45.236-.775-.036-1.056a.747.747 0 0 0-.596-.257.753.753 0 0 0-.37.081c-.196.094-.308.226-.494.576-.383.722-1.081 1.523-1.775 2.042a6.862 6.862 0 0 1-3.956 1.389c-2.607.093-5.066-1.298-6.249-3.54a6.193 6.193 0 0 1 .603-6.724c1.644-2.108 4.428-3.053 7.093-2.405a6.706 6.706 0 0 1 4.316 3.274c.2.353.338.497.55.566.302.1.58.047.816-.15.2-.166.272-.322.272-.591 0-.194-.013-.235-.18-.538C14.548 2.005 12.289.472 9.544.069 9.217.022 8-.02 7.744.009Z"/><path fill="#fff" d="M9.066 4.788a.956.956 0 0 0-.438.431.74.74 0 0 0 .016.629c.036.063.357.397.714.741l.651.626-2.436.006c-2.42.01-2.433.01-2.564.075-.62.316-.622 1.11-.01 1.401l.17.081h4.847l-.658.632c-.36.35-.685.685-.717.744-.089.16-.082.507.01.673.153.275.419.431.73.431.337 0 .38-.028 1.64-1.238 1-.957 1.176-1.142 1.278-1.33.232-.421.242-.906.026-1.347-.092-.185-.223-.32-1.287-1.342-.767-.735-1.228-1.157-1.317-1.194-.157-.075-.497-.082-.655-.02Z"/></svg>