<svg xmlns="http://www.w3.org/2000/svg" width="26" height="27" fill="none"><g clip-path="url(#a)"><path fill="#FF5038" d="M11.984.206C8.841.495 5.982 1.816 3.84 3.958 1.808 5.995.54 8.554.091 11.525c-.111.756-.08 2.742.051 3.58.61 3.758 2.626 6.896 5.749 8.953 1.213.797 2.98 1.533 4.392 1.833 2.22.467 4.53.35 6.668-.335 1.112-.356 2.488-1.006 3.092-1.463.9-.675.513-2.113-.604-2.265-.31-.04-.61.051-1.097.346-2.178 1.31-4.895 1.772-7.45 1.254-2.244-.452-4.422-1.752-5.905-3.524C3.768 18.45 3 16.76 2.66 14.774c-.127-.715-.127-2.493-.005-3.198.655-3.763 3.072-6.765 6.55-8.126 2.733-1.066 5.719-.944 8.39.35 3.031 1.474 5.093 4.216 5.723 7.628.096.523.111.792.117 2.026.005.92.025 1.468.06 1.554.092.214.366.498.595.62.29.152.838.152 1.127 0 .31-.163.564-.473.665-.813.071-.243.087-.508.092-1.538 0-1.346-.04-1.778-.28-2.88-1.05-4.86-4.829-8.709-9.673-9.866-1-.24-1.59-.31-2.743-.33a30.544 30.544 0 0 0-1.295.005Z"/><path fill="#fff" d="M17.621 8.488c-.198.066-.675.523-3.387 3.23L11.07 14.87l-1.203-1.198c-1.295-1.29-1.458-1.407-1.915-1.412-.36 0-.614.091-.878.325-.3.259-.422.528-.422.919 0 .553.061.63 1.96 2.524 1.27 1.264 1.783 1.737 1.95 1.813.3.137.716.137 1.016 0 .34-.153 7.475-7.277 7.648-7.638.3-.635.03-1.381-.61-1.68a1.32 1.32 0 0 0-.995-.036Z"/></g><defs><clipPath id="a"><path fill="#fff" d="M0 .175h26v26H0z"/></clipPath></defs></svg>